<svg id="그룹_4" data-name="그룹 4" xmlns="http://www.w3.org/2000/svg" width="26.2" height="17.843" viewBox="0 0 26.2 17.843">
  <g id="그룹_2" data-name="그룹 2">
    <g id="패스_1" data-name="패스 1" fill="#fff">
      <path d="M 19.17171478271484 16.8430233001709 L 2.141162395477295 16.8430233001709 C 1.511922478675842 16.8430233001709 1.000002503395081 16.33110237121582 1.000002503395081 15.70186233520508 L 1.000002503395081 2.141162633895874 C 1.000002503395081 1.511922597885132 1.511922478675842 1.00000262260437 2.141162395477295 1.00000262260437 L 18.9244270324707 1.00000262260437 L 20.31980323791504 4.038942813873291 L 20.7148323059082 4.899252414703369 L 21.59548187255859 4.551922798156738 L 25.19962310791016 3.13042950630188 L 25.19962310791016 14.87874984741211 C 25.16022682189941 14.9012975692749 25.12038612365723 14.92513275146484 25.08047294616699 14.95054149627686 C 24.8158016204834 14.76727771759033 24.52767562866211 14.64484691619873 24.0271167755127 14.61368656158447 L 21.70473289489746 13.35619258880615 L 20.69863319396973 12.81143283843994 L 20.29340171813965 13.88137245178223 L 19.17171478271484 16.8430233001709 Z" stroke="none"/>
      <path d="M 2.141162872314453 2.000002861022949 C 2.063322067260742 2.000002861022949 2.000001907348633 2.063323020935059 2.000001907348633 2.141162872314453 L 2.000001907348633 15.70186233520508 C 2.000001907348633 15.77970314025879 2.063322067260742 15.84302234649658 2.141162872314453 15.84302234649658 L 18.48114013671875 15.84302234649658 L 20.16869354248047 11.38730239868164 L 24.19962310791016 13.56991863250732 L 24.19962310791016 4.59980297088623 L 20.20108222961426 6.176852226257324 L 18.28321075439453 2.000002861022949 L 2.141162872314453 2.000002861022949 M 2.141162872314453 1.9073486328125e-06 L 19.56564331054688 1.9073486328125e-06 L 21.22858238220215 3.621662139892578 L 24.98233222961426 2.141162872314453 C 24.55789184570312 2.355339050292969 25.56768226623535 2.141161918640137 24.98233222961426 2.141162872314453 C 24.98086166381836 2.053881645202637 26.19962310791016 2.040151596069336 26.19962310791016 2.637332916259766 L 26.19962310791016 15.43160247802734 C 26.19962310791016 15.5498628616333 25.55902290344238 15.73455238342285 25.39782333374023 15.98937225341797 C 24.24735260009766 15.98937225341797 24.82356262207031 15.6058521270752 23.7592830657959 15.6058521270752 L 21.22858238220215 14.23556232452393 L 19.86230278015137 17.8430233001709 L 2.141162872314453 17.8430233001709 C 0.9586334228515625 17.8430233001709 1.9073486328125e-06 16.88439178466797 1.9073486328125e-06 15.70186233520508 L 1.9073486328125e-06 2.141162872314453 C 1.9073486328125e-06 0.9586334228515625 0.9586334228515625 1.9073486328125e-06 2.141162872314453 1.9073486328125e-06 Z" stroke="none" fill="#363636"/>
    </g>
    <circle id="타원_1" data-name="타원 1" cx="1.427" cy="1.427" r="1.427" transform="translate(6.423 7.137)" fill="#363636"/>
    <circle id="타원_2" data-name="타원 2" cx="1.427" cy="1.427" r="1.427" transform="translate(11.42 7.137)" fill="#363636"/>
  </g>
</svg>
